<?xml version='1.0' encoding='iso-8859-1'?>
<svg version="1.1" xmlns="http://www.w3.org/2000/svg" viewBox="0 0 302.781 302.781" xmlns:xlink="http://www.w3.org/1999/xlink" enable-background="new 0 0 302.781 302.781">
  <g>
    <path d="m238.397,0h-174.012c-13.921,0-26.102,12.181-26.102,26.102v29.582c0,6.96 3.48,12.181 6.96,17.401l69.605,81.786c1.74,1.74 1.74,3.48 1.74,5.22v116.589c0,13.921 12.181,26.102 26.102,26.102 3.48,0 8.701-1.74 12.181-5.22l17.401-8.701c8.701-3.48 13.921-12.181 13.921-22.621v-107.888c0-1.74 0-3.48 1.74-5.22l69.605-81.786c5.22-5.22 6.96-10.441 6.96-17.401v-27.843c0.001-13.921-12.181-26.102-26.101-26.102zm-174.012,17.401h174.012c5.22,0 8.701,3.48 8.701,8.701v26.102h-191.414v-26.102c0-5.221 3.48-8.701 8.701-8.701zm111.367,123.549c-5.22,5.22-6.96,10.441-6.96,17.401v107.888c0,1.74-1.74,5.22-5.22,6.96l-17.401,8.701c-5.22,3.48-12.181,0-12.181-6.96v-116.589c0-6.96-3.48-12.181-6.96-17.401l-60.714-71.345h170.166l-60.73,71.345z"/>
  </g>
</svg>
